0
SECTION
2
HEADER
9
$INSUNITS
70
4
9
$ACADVER
1
AC1014
9
$HANDSEED
5
FFFF
0
ENDSEC
0
SECTION
2
TABLES
0
TABLE
2
VPORT
5
8
100
AcDbSymbolTable
0
ENDTAB
0
TABLE
2
LTYPE
5
5
100
AcDbSymbolTable
0
LTYPE
5
14
100
AcDbSymbolTableRecord
100
AcDbLinetypeTableRecord
2
BYBLOCK
70
0
0
LTYPE
5
15
100
AcDbSymbolTableRecord
100
AcDbLinetypeTableRecord
2
BYLAYER
70
0
0
ENDTAB
0
TABLE
2
LAYER
5
2
100
AcDbSymbolTable
70
2
0
LAYER
5
50
100
AcDbSymbolTableRecord
100
AcDbLayerTableRecord
2
0
70
0
6
CONTINUOUS
0
ENDTAB
0
TABLE
2
STYLE
5
3
100
AcDbSymbolTable
70
1
0
STYLE
5
11
100
AcDbSymbolTableRecord
100
AcDbTextStyleTableRecord
2
STANDARD
70
0
0
ENDTAB
0
TABLE
2
VIEW
5
6
100
AcDbSymbolTable
70
0
0
ENDTAB
0
TABLE
2
UCS
5
7
100
AcDbSymbolTable
70
0
0
ENDTAB
0
TABLE
2
APPID
5
9
100
AcDbSymbolTable
70
2
0
APPID
5
12
100
AcDbSymbolTableRecord
100
AcDbRegAppTableRecord
2
ACAD
70
0
0
ENDTAB
0
TABLE
2
DIMSTYLE
5
A
100
AcDbSymbolTable
70
1
0
ENDTAB
0
TABLE
2
BLOCK_RECORD
5
1
100
AcDbSymbolTable
70
1
0
BLOCK_RECORD
5
1F
100
AcDbSymbolTableRecord
100
AcDbBlockTableRecord
2
*MODEL_SPACE
0
BLOCK_RECORD
5
1B
100
AcDbSymbolTableRecord
100
AcDbBlockTableRecord
2
*PAPER_SPACE
0
ENDTAB
0
ENDSEC
0
SECTION
2
BLOCKS
0
BLOCK
5
20
100
AcDbEntity
100
AcDbBlockBegin
2
*MODEL_SPACE
0
ENDBLK
5
21
100
AcDbEntity
100
AcDbBlockEnd
0
BLOCK
5
1C
100
AcDbEntity
100
AcDbBlockBegin
2
*PAPER_SPACE
0
ENDBLK
5
1D
100
AcDbEntity
100
AcDbBlockEnd
0
ENDSEC
0
SECTION
2
ENTITIES
0
LINE
5
100
100
AcDbEntity
8
0
100
AcDbLine
10
-18.777195286550025
20
22.398861424226993
30
0
11
-22.58887003092417
21
22.398861424226986
31
0
0
LINE
5
101
100
AcDbEntity
8
0
100
AcDbLine
10
-22.58887003092417
20
22.398861424226986
30
0
11
-22.821011811059279
21
22.800942781980478
31
0
0
SPLINE
5
102
100
AcDbEntity
8
0
100
AcDbSpline
70
4
71
5
72
14
73
8
74
0
42
0.000000001
43
0.0000000001
44
0.0000000001
40
0.27331495051290133
40
0.27331495051290133
40
0.27331495051290133
40
0.27331495051290133
40
0.27331495051290133
40
0.27331495051290133
40
0.40000000000000002
40
0.60000000000000009
40
0.63073655222445213
40
0.63073655222445213
40
0.63073655222445213
40
0.63073655222445213
40
0.63073655222445213
40
0.63073655222445213
41
1
41
1
41
1
41
1
41
1
41
1
41
1
41
1
10
-22.821011811059279
20
22.800942781980478
30
0
10
-22.525287347112155
20
22.78236329572842
30
0
10
-21.762980669419907
20
22.740952838899332
30
0
10
-20.932952076049975
20
22.704529117811031
30
0
10
-20.117859683832492
20
22.647213938238689
30
0
10
-19.332551404777551
20
22.528302286305188
30
0
10
-18.842209176502642
20
22.414677878624872
30
0
10
-18.777195286550029
20
22.398861424226983
30
0
0
SPLINE
5
103
100
AcDbEntity
8
0
100
AcDbSpline
70
4
71
5
72
14
73
8
74
0
42
0.000000001
43
0.0000000001
44
0.0000000001
40
-0.24395936535262325
40
-0.24395936535262325
40
-0.24395936535262325
40
-0.24395936535262325
40
-0.24395936535262325
40
-0.24395936535262325
40
-0.20000000000000001
40
-0.10000000000000001
40
-0.082540909641381097
40
-0.082540909641381097
40
-0.082540909641381097
40
-0.082540909641381097
40
-0.082540909641381097
40
-0.082540909641381097
41
1
41
1
41
1
41
1
41
1
41
1
41
1
41
1
10
-15.042944382035692
20
25.468788038238984
30
0
10
-15.142002436552266
20
25.670752681032859
30
0
10
-15.474381169565053
20
26.319483612098168
30
0
10
-15.88075358191027
20
26.994454276660122
30
0
10
-16.340707778222992
20
27.589391495599713
30
0
10
-16.86955946347436
20
28.084042708290134
30
0
10
-17.294902465141039
20
28.38557597827926
30
0
10
-17.359032680840251
20
28.42908927219888
30
0
0
SPLINE
5
104
100
AcDbEntity
8
0
100
AcDbSpline
70
4
71
5
72
12
73
6
74
0
42
0.000000001
43
0.0000000001
44
0.0000000001
40
-0.082540909641132615
40
-0.082540909641132615
40
-0.082540909641132615
40
-0.082540909641132615
40
-0.082540909641132615
40
-0.082540909641132615
40
0
40
0
40
0
40
0
40
0
40
0
41
1
41
1
41
1
41
1
41
1
41
1
10
-17.359032680844813
20
28.429089272201978
30
0
10
-17.662219515357439
20
28.634805995572329
30
0
10
-17.9856861458194
20
28.811320416539608
30
0
10
-18.330723848064196
20
28.956934672158262
30
0
10
-18.69811202659098
20
29.070630760899071
30
0
10
-19.087851864211373
20
29.15240697255113
30
0
0
LINE
5
105
100
AcDbEntity
8
0
100
AcDbLine
10
-19.087851864211373
20
29.15240697255113
30
0
11
-32.606196070375624
21
31.988860602075757
31
0
0
SPLINE
5
106
100
AcDbEntity
8
0
100
AcDbSpline
70
4
71
5
72
13
73
7
74
0
42
0.000000001
43
0.0000000001
44
0.0000000001
40
0
40
0
40
0
40
0
40
0
40
0
40
0.20000000000000001
40
0.29640873914205135
40
0.29640873914205135
40
0.29640873914205135
40
0.29640873914205135
40
0.29640873914205135
40
0.29640873914205135
41
1
41
1
41
1
41
1
41
1
41
1
41
1
10
-32.606196070375624
20
31.988860602075757
30
0
10
-33.277318078508657
20
32.129677141941244
30
0
10
-34.269215135396195
20
32.353403480118608
30
0
10
-35.257059991401306
20
32.599390590712957
30
0
10
-36.240518763306824
20
32.867154212453997
30
0
10
-37.218486858009847
20
33.157681714206532
30
0
10
-37.535949055584446
20
33.254640722900987
30
0
0
SPLINE
5
107
100
AcDbEntity
8
0
100
AcDbSpline
70
4
71
5
72
15
73
9
74
0
42
0.000000001
43
0.0000000001
44
0.0000000001
40
0.29640873914231369
40
0.29640873914231369
40
0.29640873914231369
40
0.29640873914231369
40
0.29640873914231369
40
0.29640873914231369
40
0.40000000000000002
40
0.60000000000000009
40
0.80000000000000004
40
0.88350164501432271
40
0.88350164501432271
40
0.88350164501432271
40
0.88350164501432271
40
0.88350164501432271
40
0.88350164501432271
41
1
41
1
41
1
41
1
41
1
41
1
41
1
41
1
41
1
10
-37.53594905558878
20
33.254640722902323
30
0
10
-37.877062419523007
20
33.358823248797343
30
0
10
-38.874626937582889
20
33.67248172801925
30
0
10
-40.518209605305621
20
34.234259896098223
30
0
10
-42.407068336482197
20
34.977179920649689
30
0
10
-44.247480840887398
20
35.853443528887937
30
0
10
-45.71648784569323
20
36.69548583969415
30
0
10
-46.559583914228071
20
37.235636574633801
30
0
10
-46.806277453942819
20
37.398861424226993
30
0
0
LINE
5
108
100
AcDbEntity
8
0
100
AcDbLine
10
-48.494470484555251
20
38.620148078252221
30
0
11
-55.038480117902246
21
43.783056732906509
31
0
0
SPLINE
5
109
100
AcDbEntity
8
0
100
AcDbSpline
70
4
71
5
72
12
73
6
74
0
42
0.000000001
43
0.0000000001
44
0.0000000001
40
-1
40
-1
40
-1
40
-1
40
-1
40
-1
40
-0.86991380929144047
40
-0.86991380929144047
40
-0.86991380929144047
40
-0.86991380929144047
40
-0.86991380929144047
40
-0.86991380929144047
41
1
41
1
41
1
41
1
41
1
41
1
10
-55.038480117902246
20
43.783056732906516
30
0
10
-55.309706697973944
20
43.997041451157642
30
0
10
-55.587547429239436
20
44.215930046800679
30
0
10
-55.871997749621173
20
44.439716045809405
30
0
10
-56.162765874880904
20
44.667747066982116
30
0
10
-56.459384055037674
20
44.898861424227007
30
0
0
SPLINE
5
110
100
AcDbEntity
8
0
100
AcDbSpline
70
4
71
5
72
15
73
9
74
0
42
0.000000001
43
0.0000000001
44
0.0000000001
40
-0.86991380929144035
40
-0.86991380929144035
40
-0.86991380929144035
40
-0.86991380929144035
40
-0.86991380929144035
40
-0.86991380929144035
40
-0.80000000000000004
40
-0.60000000000000009
40
-0.40000000000000002
40
-0.26922218686297883
40
-0.26922218686297883
40
-0.26922218686297883
40
-0.26922218686297883
40
-0.26922218686297883
40
-0.26922218686297883
41
1
41
1
41
1
41
1
41
1
41
1
41
1
41
1
41
1
10
-56.459384055037667
20
44.898861424227007
30
0
10
-56.618799184090953
20
45.023072034199686
30
0
10
-57.240771196734954
20
45.506045933347828
30
0
10
-58.365573239865185
20
46.36532309410633
30
0
10
-59.877335869826666
20
47.455076254209217
30
0
10
-61.421719974416192
20
48.353532810382518
30
0
10
-62.750186260430652
20
48.7734264259187
30
0
10
-63.549910026864431
20
48.83039383693432
30
0
10
-63.860900148759001
20
48.817472526248196
30
0
0
LINE
5
111
100
AcDbEntity
8
0
100
AcDbLine
10
-66.783555650716949
20
46.918880412445958
30
0
11
-74.300510789853035
21
35.737728671150194
31
0
0
SPLINE
5
112
100
AcDbEntity
8
0
100
AcDbSpline
70
4
71
5
72
13
73
7
74
0
42
0.000000001
43
0.0000000001
44
0.0000000001
40
0
40
0
40
0
40
0
40
0
40
0
40
0.20000000000000001
40
0.3402705639245921
40
0.3402705639245921
40
0.3402705639245921
40
0.3402705639245921
40
0.3402705639245921
40
0.3402705639245921
41
1
41
1
41
1
41
1
41
1
41
1
41
1
10
-74.300510789853035
20
35.737728671150201
30
0
10
-74.726437280500065
20
35.104181093119855
30
0
10
-75.312829148699976
20
34.028967189494985
30
0
10
-75.664202547246788
20
32.958305015388582
30
0
10
-75.807358966566142
20
31.893984009201301
30
0
10
-75.777254597196773
20
30.840793107731017
30
0
10
-75.737750189813028
20
30.408942617223683
30
0
0
SPLINE
5
113
100
AcDbEntity
8
0
100
AcDbSpline
70
4
71
5
72
12
73
6
74
0
42
0.000000001
43
0.0000000001
44
0.0000000001
40
0.34027056392459282
40
0.34027056392459282
40
0.34027056392459282
40
0.34027056392459282
40
0.34027056392459282
40
0.34027056392459282
40
0.37979557936778435
40
0.37979557936778435
40
0.37979557936778435
40
0.37979557936778435
40
0.37979557936778435
40
0.37979557936778435
41
1
41
1
41
1
41
1
41
1
41
1
10
-75.737750189813028
20
30.408942617223673
30
0
10
-75.726618757328339
20
30.287257091558942
30
0
10
-75.713336075721088
20
30.165754893454274
30
0
10
-75.697954692938097
20
30.044445364835504
30
0
10
-75.680526526382891
20
29.923338365078934
30
0
10
-75.661102266927514
20
29.802444262950189
30
0
0
SPLINE
5
114
100
AcDbEntity
8
0
100
AcDbSpline
70
4
71
5
72
15
73
9
74
0
42
0.000000001
43
0.0000000001
44
0.0000000001
40
0.37979557936790143
40
0.37979557936790143
40
0.37979557936790143
40
0.37979557936790143
40
0.37979557936790143
40
0.37979557936790143
40
0.40000000000000002
40
0.60000000000000009
40
0.80000000000000004
40
0.90919235029770962
40
0.90919235029770962
40
0.90919235029770962
40
0.90919235029770962
40
0.90919235029770962
40
0.90919235029770962
41
1
41
1
41
1
41
1
41
1
41
1
41
1
41
1
41
1
10
-75.661102266927216
20
29.802444262948391
30
0
10
-75.651172962558746
20
29.740645544745242
30
0
10
-75.537270503575527
20
29.067718519610906
30
0
10
-75.203222456145568
20
27.796531444592965
30
0
10
-74.541541382703159
20
26.234522559808113
30
0
10
-73.655664928392625
20
24.747922922572876
30
0
10
-72.635945060662067
20
23.422349048813757
30
0
10
-71.957343977279123
20
22.66176076306083
30
0
10
-71.71033780082783
20
22.398861424227764
30
0
0
SPLINE
5
115
100
AcDbEntity
8
0
100
AcDbSpline
70
4
71
5
72
12
73
6
74
0
42
0.000000001
43
0.0000000001
44
0.0000000001
40
0.90919235029777379
40
0.90919235029777379
40
0.90919235029777379
40
0.90919235029777379
40
0.90919235029777379
40
0.90919235029777379
40
0.92093325619932598
40
0.92093325619932598
40
0.92093325619932598
40
0.92093325619932598
40
0.92093325619932598
40
0.92093325619932598
41
1
41
1
41
1
41
1
41
1
41
1
10
-71.710337800827133
20
22.398861424226997
30
0
10
-71.683778465242639
20
22.370593176585075
30
0
10
-71.657134084079132
20
22.342390888587072
30
0
10
-71.63040472330367
20
22.314254779723509
30
0
10
-71.603590441782231
20
22.286185058498376
30
0
10
-71.576691291967194
20
22.258181921662654
30
0
0
SPLINE
5
116
100
AcDbEntity
8
0
100
AcDbSpline
70
4
71
5
72
12
73
6
74
0
42
0.000000001
43
0.0000000001
44
0.0000000001
40
0.92093325619932642
40
0.92093325619932642
40
0.92093325619932642
40
0.92093325619932642
40
0.92093325619932642
40
0.92093325619932642
40
1
40
1
40
1
40
1
40
1
40
1
41
1
41
1
41
1
41
1
41
1
41
1
10
-71.576691291967194
20
22.258181921662651
30
0
10
-71.39554443628893
20
22.069600489840376
30
0
10
-71.210548739679112
20
21.88403871014701
30
0
10
-71.021720221390609
20
21.701556671396737
30
0
10
-70.829061709939353
20
21.522190290080275
30
0
10
-70.632572364445238
20
21.345940694125876
30
0
0
LINE
5
117
100
AcDbEntity
8
0
100
AcDbLine
10
-70.632572364445224
20
21.345940694125879
30
0
11
-62.639253446574592
21
14.175988419784211
31
0
0
SPLINE
5
118
100
AcDbEntity
8
0
100
AcDbSpline
70
4
71
5
72
12
73
6
74
0
42
0.000000001
43
0.0000000001
44
0.0000000001
40
0
40
0
40
0
40
0
40
0
40
0
40
0.16105313722276729
40
0.16105313722276729
40
0.16105313722276729
40
0.16105313722276729
40
0.16105313722276729
40
0.16105313722276729
41
1
41
1
41
1
41
1
41
1
41
1
10
-62.639253446574592
20
14.175988419784211
30
0
10
-62.307059866722838
20
13.878013055876879
30
0
10
-62.011124657401837
20
13.570058354812709
30
0
10
-61.751420604640863
20
13.252131513259124
30
0
10
-61.526157002782966
20
12.924674222851689
30
0
10
-61.3328364600806
20
12.588279678616976
30
0
0
SPLINE
5
119
100
AcDbEntity
8
0
100
AcDbSpline
70
4
71
5
72
14
73
8
74
0
42
0.000000001
43
0.0000000001
44
0.0000000001
40
0.16105313722339948
40
0.16105313722339948
40
0.16105313722339948
40
0.16105313722339948
40
0.16105313722339948
40
0.16105313722339948
40
0.20000000000000001
40
0.40000000000000002
40
0.40158156559955538
40
0.40158156559955538
40
0.40158156559955538
40
0.40158156559955538
40
0.40158156559955538
40
0.40158156559955538
41
1
41
1
41
1
41
1
41
1
41
1
41
1
41
1
10
-61.332836460076798
20
12.588279678610373
30
0
10
-61.286086494330441
20
12.506930675548173
30
0
10
-61.010726741154926
20
12.004631564028283
30
0
10
-60.802985450877429
20
11.479522527509756
30
0
10
-60.656314857922652
20
10.936883521950582
30
0
10
-60.559596992452533
20
10.379223146823717
30
0
10
-60.507449356521271
20
9.9026014647307701
30
0
10
-60.507041993967661
20
9.8988614242269986
30
0
0
SPLINE
5
120
100
AcDbEntity
8
0
100
AcDbSpline
70
4
71
5
72
14
73
8
74
0
42
0.000000001
43
0.0000000001
44
0.0000000001
40
0.40158156559955538
40
0.40158156559955538
40
0.40158156559955538
40
0.40158156559955538
40
0.40158156559955538
40
0.40158156559955538
40
0.60000000000000009
40
0.80000000000000004
40
1
40
1
40
1
40
1
40
1
40
1
41
1
41
1
41
1
41
1
41
1
41
1
41
1
41
1
10
-60.507041993967661
20
9.8988614242269986
30
0
10
-60.455935520645369
20
9.4296472597554377
30
0
10
-60.409462885982997
20
8.4694859988581257
30
0
10
-60.473348168913731
20
6.9805249444034798
30
0
10
-60.636893837806184
20
5.4405426097743295
30
0
10
-60.794397847203349
20
3.8637726867308024
30
0
10
-60.883856698086774
20
2.7939911598713025
30
0
10
-60.924620903131775
20
2.2551426000506791
30
0
0
LINE
5
121
100
AcDbEntity
8
0
100
AcDbLine
10
-60.924620903131775
20
2.2551426000506796
30
0
11
-62.21142831281621
21
-14.754739444979785
31
0
0
SPLINE
5
122
100
AcDbEntity
8
0
100
AcDbSpline
70
0
71
3
72
8
73
4
74
0
42
0.000000001
43
0.0000000001
44
0.0000000001
40
0
40
0
40
0
40
0
40
0.34689022798363472
40
0.34689022798363472
40
0.34689022798363472
40
0.34689022798363472
10
-62.21142831281621
20
-14.754739444979784
30
0
10
-62.389591643100985
20
-17.109821650822219
30
0
10
-62.520138294578771
20
-19.459123973896009
30
0
10
-62.589913920056048
20
-21.818336953960369
30
0
0
SPLINE
5
123
100
AcDbEntity
8
0
100
AcDbSpline
70
0
71
3
72
8
73
4
74
0
42
0.000000001
43
0.0000000001
44
0.0000000001
40
0.34689022798362573
40
0.34689022798362573
40
0.34689022798362573
40
0.34689022798362573
40
0.66443224227029418
40
0.66443224227029418
40
0.66443224227029418
40
0.66443224227029418
10
-62.589913920056063
20
-21.818336953960188
30
0
10
-62.65378626604565
20
-23.977951671778737
30
0
10
-62.666735512762664
20
-26.145871027563786
30
0
10
-62.618671531894663
20
-28.334130552773725
30
0
0
SPLINE
5
124
100
AcDbEntity
8
0
100
AcDbSpline
70
0
71
3
72
8
73
4
74
0
42
0.000000001
43
0.0000000001
44
0.0000000001
40
0.91045444840010004
40
0.91045444840010004
40
0.91045444840010004
40
0.91045444840010004
40
1
40
1
40
1
40
1
10
-62.366550864775469
20
-33.458033782609753
30
0
10
-62.317069246886767
20
-34.083039168607371
30
0
10
-62.260124685451679
20
-34.708762883341592
30
0
10
-62.195079969361522
20
-35.334655955741781
30
0
0
LINE
5
125
100
AcDbEntity
8
0
100
AcDbLine
10
-62.195079969361522
20
-35.334655955741781
30
0
11
-59.597003719293895
21
-60.334656328270881
31
0
0
SPLINE
5
126
100
AcDbEntity
8
0
100
AcDbSpline
70
0
71
3
72
14
73
10
74
0
42
0.000000001
43
0.0000000001
44
0.0000000001
40
-1
40
-1
40
-1
40
-1
40
-0.99032961220498306
40
-0.99032961220498306
40
-0.99032961220498306
40
-0.80778318786144321
40
-0.80778318786144321
40
-0.80778318786144321
40
-0.66768930204986143
40
-0.66768930204986143
40
-0.66768930204986143
40
-0.66768930204986143
10
-59.597003719293895
20
-60.334656328270881
30
0
10
-59.59143202650025
20
-60.388269967175191
30
0
10
-59.5853605895418
20
-60.442044611941903
30
0
10
-59.578766914853965
20
-60.495965774327487
30
0
10
-59.45429913103122
20
-61.513827270534293
30
0
10
-59.111069645049163
20
-62.607909761929065
30
0
10
-58.555519824200381
20
-63.49394511380811
30
0
10
-58.129167276104631
20
-64.173926306852835
30
0
10
-57.608834565686529
20
-64.704208062443044
30
0
10
-57.091007271334114
20
-65.101138575773007
30
0
0
SPLINE
5
127
100
AcDbEntity
8
0
100
AcDbSpline
70
0
71
3
72
11
73
7
74
0
42
0.000000001
43
0.0000000001
44
0.0000000001
40
-0.6676893020500656
40
-0.6676893020500656
40
-0.6676893020500656
40
-0.6676893020500656
40
-0.61976440982799463
40
-0.61976440982799463
40
-0.61976440982799463
40
-0.4899971539060895
40
-0.4899971539060895
40
-0.4899971539060895
40
-0.4899971539060895
10
-57.091007271336387
20
-65.101138575771259
30
0
10
-56.913863086008682
20
-65.236925030410632
30
0
10
-56.737012100558495
20
-65.357105866312665
30
0
10
-56.564316991104214
20
-65.462335562459728
30
0
10
-56.096706748786467
20
-65.747268261884983
30
0
10
-55.654400802540991
20
-65.944685508273594
30
0
10
-55.234899874699806
20
-66.089877217739712
30
0
0
LINE
5
128
100
AcDbEntity
8
0
100
AcDbLine
10
-51.182301049597029
20
-66.666255363326471
30
0
11
-24.366550794585287
21
-66.666255363326457
31
0
0
SPLINE
5
129
100
AcDbEntity
8
0
100
AcDbSpline
70
0
71
3
72
17
73
13
74
0
42
0.000000001
43
0.0000000001
44
0.0000000001
40
0.19862249706136467
40
0.19862249706136467
40
0.19862249706136467
40
0.19862249706136467
40
0.39398882867434026
40
0.39398882867434026
40
0.39398882867434026
40
0.67636728762579179
40
0.67636728762579179
40
0.67636728762579179
40
0.8876648911288797
40
0.8876648911288797
40
0.8876648911288797
40
1
40
1
40
1
40
1
10
-24.366550794585287
20
-66.666255363326457
30
0
10
-24.306492418841046
20
-66.696993105977924
30
0
10
-24.134949102069836
20
-66.808671691503122
30
0
10
-23.851295260485614
20
-67.056534445450339
30
0
10
-23.441307858864711
20
-67.414790148534991
30
0
10
-22.846616799366394
20
-68.045879327448247
30
0
10
-21.940458607124071
20
-68.706657226885255
30
0
10
-21.26240031922751
20
-69.201102827011042
30
0
10
-20.361633954881491
20
-69.705901155542307
30
0
10
-19.305029936537565
20
-69.913667411785823
30
0
10
-18.743292721034344
20
-70.02412510097831
30
0
10
-18.150610182640641
20
-70.046634945496336
30
0
10
-17.581579067195435
20
-69.983576839097083
30
0
0
LINE
5
130
100
AcDbEntity
8
0
100
AcDbLine
10
-17.581579067195438
20
-69.983576839097083
30
0
11
14.035861840151584
21
-66.479838820749706
31
0
0
SPLINE
5
131
100
AcDbEntity
8
0
100
AcDbSpline
70
0
71
3
72
8
73
4
74
0
42
0.000000001
43
0.0000000001
44
0.0000000001
40
0
40
0
40
0
40
0
40
0.064508840258260508
40
0.064508840258260508
40
0.064508840258260508
40
0.064508840258260508
10
14.035861840151583
20
-66.479838820749706
30
0
10
14.642517347175051
20
-66.412611306346278
30
0
10
15.241480123185964
20
-66.285597910581956
30
0
10
15.821574746211411
20
-66.105617677246357
30
0
0
SPLINE
5
132
100
AcDbEntity
8
0
100
AcDbSpline
70
0
71
3
72
8
73
4
74
0
42
0.000000001
43
0.0000000001
44
0.0000000001
40
0.064508840258261757
40
0.064508840258261757
40
0.064508840258261757
40
0.064508840258261757
40
0.15178543590832813
40
0.15178543590832813
40
0.15178543590832813
40
0.15178543590832813
10
15.821574746211443
20
-66.105617677246357
30
0
10
16.606408013247066
20
-65.862115205539439
30
0
10
17.356704128776133
20
-65.521659751978291
30
0
10
18.044787328650596
20
-65.101138575772978
30
0
0
SPLINE
5
133
100
AcDbEntity
8
0
100
AcDbSpline
70
4
71
5
72
13
73
7
74
0
42
0.000000001
43
0.0000000001
44
0.0000000001
40
0
40
0
40
0
40
0
40
0
40
0
40
0.20000000000000001
40
0.35737156507676604
40
0.35737156507676604
40
0.35737156507676604
40
0.35737156507676604
40
0.35737156507676604
40
0.35737156507676604
41
1
41
1
41
1
41
1
41
1
41
1
41
1
10
28.203987214716975
20
-54.616718719568809
30
0
10
28.807832569888916
20
-54.438386097169314
30
0
10
29.864443782404791
20
-54.097744021440228
30
0
10
30.881091600516747
20
-53.717830760159863
30
0
10
31.855294852213831
20
-53.296208117877512
30
0
10
32.775662150246049
20
-52.821682018387392
30
0
10
33.169167563862217
20
-52.601138575773021
30
0
0
SPLINE
5
134
100
AcDbEntity
8
0
100
AcDbSpline
70
4
71
5
72
15
73
9
74
0
42
0.000000001
43
0.0000000001
44
0.0000000001
40
0.35737156507677342
40
0.35737156507677342
40
0.35737156507677342
40
0.35737156507677342
40
0.35737156507677342
40
0.35737156507677342
40
0.40000000000000002
40
0.60000000000000009
40
0.80000000000000004
40
0.88013030738740372
40
0.88013030738740372
40
0.88013030738740372
40
0.88013030738740372
40
0.88013030738740372
40
0.88013030738740372
41
1
41
1
41
1
41
1
41
1
41
1
41
1
41
1
41
1
10
33.16916756386231
20
-52.601138575772964
30
0
10
33.275759373558628
20
-52.541398293043713
30
0
10
33.877526236948299
20
-52.196537372608525
30
0
10
34.922642512196042
20
-51.515627848332088
30
0
10
36.022581475943113
20
-50.579401130179221
30
0
10
36.900506191145965
20
-49.425005688377055
30
0
10
37.444281235011928
20
-48.106734213882149
30
0
10
37.660169899697507
20
-47.237974432346149
30
0
10
37.713400197655815
20
-46.981092429840004
30
0
0
LINE
5
135
100
AcDbEntity
8
0
100
AcDbLine
10
37.914656782245089
20
-44.86622086563515
30
0
11
37.914656782245089
21
16.000000238418579
31
0
0
SPLINE
5
136
100
AcDbEntity
8
0
100
AcDbSpline
70
4
71
5
72
15
73
9
74
0
42
0.000000001
43
0.0000000001
44
0.0000000001
40
0
40
0
40
0
40
0
40
0
40
0
40
0.20000000000000001
40
0.40000000000000002
40
0.60000000000000009
40
0.64352575609186691
40
0.64352575609186691
40
0.64352575609186691
40
0.64352575609186691
40
0.64352575609186691
40
0.64352575609186691
41
1
41
1
41
1
41
1
41
1
41
1
41
1
41
1
41
1
10
37.914656782245089
20
16.000000238418579
30
0
10
37.914656782245089
20
16.48926746553548
30
0
10
37.856877214911478
20
17.450203909450547
30
0
10
37.597014578822645
20
18.838831771201889
30
0
10
37.070780581961884
20
20.233927924452317
30
0
10
36.334489241453809
20
21.465760936850447
30
0
10
35.734235519858927
20
22.197417408504307
30
0
10
35.376454206372749
20
22.556094884710618
30
0
10
35.311604000701081
20
22.618782235742696
30
0
0
SPLINE
5
137
100
AcDbEntity
8
0
100
AcDbSpline
70
4
71
5
72
13
73
7
74
0
42
0.000000001
43
0.0000000001
44
0.0000000001
40
0.64352575609204887
40
0.64352575609204887
40
0.64352575609204887
40
0.64352575609204887
40
0.64352575609204887
40
0.64352575609204887
40
0.80000000000000004
40
1
40
1
40
1
40
1
40
1
40
1
41
1
41
1
41
1
41
1
41
1
41
1
41
1
10
35.311604000699731
20
22.618782235744014
30
0
10
35.078468776619196
20
22.844142039595088
30
0
10
34.520750507813077
20
23.315750302454994
30
0
10
33.901840938209652
20
23.681433462141058
30
0
10
33.218039036757276
20
23.915740319038417
30
0
10
32.463979709555929
20
24.000000298023224
30
0
10
32.018781762468613
20
24.000000298023224
30
0
0
LINE
5
138
100
AcDbEntity
8
0
100
AcDbLine
10
32.018781762468613
20
24.000000298023224
30
0
11
18.095905353355263
21
24.000000298023231
31
0
0
SPLINE
5
139
100
AcDbEntity
8
0
100
AcDbSpline
70
4
71
5
72
12
73
6
74
0
42
0.000000001
43
0.0000000001
44
0.0000000001
40
0
40
0
40
0
40
0
40
0
40
0
40
0.070138466955875972
40
0.070138466955875972
40
0.070138466955875972
40
0.070138466955875972
40
0.070138466955875972
40
0.070138466955875972
41
1
41
1
41
1
41
1
41
1
41
1
10
18.09590535335526
20
24.000000298023231
30
0
10
17.810781627055565
20
24.000000298023231
30
0
10
17.536767422659672
20
23.977254786821824
30
0
10
17.273862222060146
20
23.931764993417254
30
0
10
17.021888879343297
20
23.86405803527953
30
0
10
16.780543623166015
20
23.775041985339374
30
0
0
SPLINE
5
140
100
AcDbEntity
8
0
100
AcDbSpline
70
4
71
5
72
13
73
7
74
0
42
0.000000001
43
0.0000000001
44
0.0000000001
40
0.070138466956275625
40
0.070138466956275625
40
0.070138466956275625
40
0.070138466956275625
40
0.070138466956275625
40
0.070138466956275625
40
0.10000000000000001
40
0.16779635143382168
40
0.16779635143382168
40
0.16779635143382168
40
0.16779635143382168
40
0.16779635143382168
40
0.16779635143382168
41
1
41
1
41
1
41
1
41
1
41
1
41
1
10
16.780543623159133
20
23.775041985336838
30
0
10
16.677790602526237
20
23.737143299607126
30
0
10
16.348051815403753
20
23.60056906246669
30
0
10
16.03866656614629
20
23.423433212004966
30
0
10
15.748669358625486
20
23.208624728092712
30
0
10
15.476698797589547
20
22.96023246328253
30
0
10
15.296064227912826
20
22.773152679656764
30
0
0
SPLINE
5
141
100
AcDbEntity
8
0
100
AcDbSpline
70
4
71
5
72
12
73
6
74
0
42
0.000000001
43
0.0000000001
44
0.0000000001
40
0.1677963514338224
40
0.1677963514338224
40
0.1677963514338224
40
0.1677963514338224
40
0.1677963514338224
40
0.1677963514338224
40
0.19556680470895019
40
0.19556680470895019
40
0.19556680470895019
40
0.19556680470895019
40
0.19556680470895019
40
0.19556680470895019
41
1
41
1
41
1
41
1
41
1
41
1
10
15.296064227912813
20
22.773152679656746
30
0
10
15.222073463351142
20
22.696521853955581
30
0
10
15.14945411589925
20
22.617434628850649
30
0
10
15.078170845337425
20
22.535997215665923
30
0
10
15.008186658482369
20
22.452320818758974
30
0
10
14.939463292492869
20
22.366520466978834
30
0
0
SPLINE
5
142
100
AcDbEntity
8
0
100
AcDbSpline
70
4
71
5
72
17
73
11
74
0
42
0.000000001
43
0.0000000001
44
0.0000000001
40
0.19556680470825552
40
0.19556680470825552
40
0.19556680470825552
40
0.19556680470825552
40
0.19556680470825552
40
0.19556680470825552
40
0.20000000000000001
40
0.30000000000000004
40
0.40000000000000002
40
0.5
40
0.59999999999999998
40
0.66999338871811731
40
0.66999338871811731
40
0.66999338871811731
40
0.66999338871811731
40
0.66999338871811731
40
0.66999338871811731
41
1
41
1
41
1
41
1
41
1
41
1
41
1
41
1
41
1
41
1
41
1
10
14.939463292501465
20
22.366520466989577
30
0
10
14.928492492006436
20
22.352823545597179
30
0
10
14.670809228330901
20
22.028888817653851
30
0
10
14.20111645348646
20
21.336479844698886
30
0
10
13.59125264284746
20
20.170545595508518
30
0
10
12.907734971458812
20
18.506880642481931
30
0
10
12.191992410152457
20
16.737202685489784
30
0
10
11.614438718169662
20
15.660076546284696
30
0
10
11.163895068073019
20
15.086154155787179
30
0
10
10.867357202101688
20
14.803370519058509
30
0
10
10.743063713442568
20
14.69957966125509
30
0
0
LINE
5
143
100
AcDbEntity
8
0
100
AcDbLine
10
7.4221916005666699
20
14.004263301391966
30
0
11
-2.9355000377947604
21
14.004263301391964
31
0
0
SPLINE
5
144
100
AcDbEntity
8
0
100
AcDbSpline
70
4
71
5
72
12
73
6
74
0
42
0.000000001
43
0.0000000001
44
0.0000000001
40
-1
40
-1
40
-1
40
-1
40
-1
40
-1
40
-0.948964535886751
40
-0.948964535886751
40
-0.948964535886751
40
-0.948964535886751
40
-0.948964535886751
40
-0.948964535886751
41
1
41
1
41
1
41
1
41
1
41
1
10
-2.9355000377947604
20
14.004263301391966
30
0
10
-3.152015750885369
20
14.004263301391966
30
0
10
-3.3688549054469297
20
14.008797041830194
30
0
10
-3.5860172548873592
20
14.017864649268329
30
0
10
-3.803439510403448
20
14.031508231623238
30
0
10
-4.0210103182763373
20
14.049800796536573
30
0
0
SPLINE
5
145
100
AcDbEntity
8
0
100
AcDbSpline
70
4
71
5
72
14
73
8
74
0
42
0.000000001
43
0.0000000001
44
0.0000000001
40
-0.94896453588675067
40
-0.94896453588675067
40
-0.94896453588675067
40
-0.94896453588675067
40
-0.94896453588675067
40
-0.94896453588675067
40
-0.89999999999999991
40
-0.79999999999999993
40
-0.7804507506192031
40
-0.7804507506192031
40
-0.7804507506192031
40
-0.7804507506192031
40
-0.7804507506192031
40
-0.7804507506192031
41
1
41
1
41
1
41
1
41
1
41
1
41
1
41
1
10
-4.0210103182763444
20
14.049800796536571
30
0
10
-4.2297524903150201
20
14.067351081749461
30
0
10
-4.8652236485957117
20
14.133763237561357
30
0
10
-5.5844924470678103
20
14.254371597826882
30
0
10
-6.2992049968763952
20
14.429695948516388
30
0
10
-7.0001520494826233
20
14.665561353548625
30
0
10
-7.4870629730220131
20
14.865320387821573
30
0
10
-7.5663927610376263
20
14.898861424227
30
0
0
SPLINE
5
146
100
AcDbEntity
8
0
100
AcDbSpline
70
4
71
5
72
14
73
8
74
0
42
0.000000001
43
0.0000000001
44
0.0000000001
40
-0.78045075061920299
40
-0.78045075061920299
40
-0.78045075061920299
40
-0.78045075061920299
40
-0.78045075061920299
40
-0.78045075061920299
40
-0.69999999999999996
40
-0.59999999999999998
40
-0.58385525240961589
40
-0.58385525240961589
40
-0.58385525240961589
40
-0.58385525240961589
40
-0.58385525240961589
40
-0.58385525240961589
41
1
41
1
41
1
41
1
41
1
41
1
41
1
41
1
10
-7.566392761037628
20
14.898861424226999
30
0
10
-7.8928575202721873
20
15.03689237890976
30
0
10
-8.6140190411099766
20
15.379752830058928
30
0
10
-9.3668479385745513
20
15.837755268627356
30
0
10
-10.069915686206807
20
16.39483661348255
30
0
10
-10.712669626225322
20
17.052604016098169
30
0
10
-11.070704294883251
20
17.474933830433422
30
0
10
-11.120052811257054
20
17.534287297042813
30
0
0
SPLINE
5
147
100
AcDbEntity
8
0
100
AcDbSpline
70
4
71
5
72
12
73
6
74
0
42
0.000000001
43
0.0000000001
44
0.0000000001
40
-0.29134070401662343
40
-0.29134070401662343
40
-0.29134070401662343
40
-0.29134070401662343
40
-0.29134070401662343
40
-0.29134070401662343
40
-0.24395936535262341
40
-0.24395936535262341
40
-0.24395936535262341
40
-0.24395936535262341
40
-0.24395936535262341
40
-0.24395936535262341
41
1
41
1
41
1
41
1
41
1
41
1
10
-14.532822965022048
20
24.341636819363504
30
0
10
-14.631022755574804
20
24.573557578481172
30
0
10
-14.730674442703261
20
24.802862613495815
30
0
10
-14.832237255463507
20
25.02892109646
30
0
10
-14.936175251253264
20
25.251101657609762
30
0
10
-15.042944382035692
20
25.468788038238984
30
0
0
SPLINE
5
148
100
AcDbEntity
8
0
100
AcDbSpline
70
4
71
5
72
16
73
10
74
0
42
0.000000001
43
0.0000000001
44
0.0000000001
40
0.045646004823500341
40
0.045646004823500341
40
0.045646004823500341
40
0.045646004823500341
40
0.045646004823500341
40
0.045646004823500341
40
0.20000000000000001
40
0.40000000000000002
40
0.60000000000000009
40
0.80000000000000004
40
1
40
1
40
1
40
1
40
1
40
1
41
1
41
1
41
1
41
1
41
1
41
1
41
1
41
1
41
1
41
1
10
3.3395067071625046
20
7.522916552864678
30
0
10
3.5806788372435556
20
7.5480861976466436
30
0
10
4.1084043237718362
20
7.6542539938452334
30
0
10
4.8438131446589754
20
7.9886640543826992
30
0
10
5.6894146087446664
20
8.7349438396915478
30
0
10
6.650498498643028
20
9.8944469020651571
30
0
10
7.5239036080576138
20
10.764809509714237
30
0
10
8.2997519123071264
20
11.215062388267826
30
0
10
8.8843964998326399
20
11.401390289594811
30
0
10
9.1935896237520769
20
11.466063743897603
30
0
0
SPLINE
5
149
100
AcDbEntity
8
0
100
AcDbSpline
70
4
71
5
72
13
73
7
74
0
42
0.000000001
43
0.0000000001
44
0.0000000001
40
0.16131944219978772
40
0.16131944219978772
40
0.16131944219978772
40
0.16131944219978772
40
0.16131944219978772
40
0.16131944219978772
40
0.20000000000000001
40
0.26835882080136692
40
0.26835882080136692
40
0.26835882080136692
40
0.26835882080136692
40
0.26835882080136692
40
0.26835882080136692
41
1
41
1
41
1
41
1
41
1
41
1
41
1
10
9.1935896237520769
20
11.466063743897601
30
0
10
9.4000214297395424
20
11.509242770008974
30
0
10
9.9563339439865643
20
11.635192705153109
30
0
10
10.472222761266448
20
11.778600517175839
30
0
10
10.950411250495019
20
11.938202937184844
30
0
10
11.393985533968811
20
12.11255885564799
30
0
10
11.663992280886788
20
12.229529809328849
30
0
0
SPLINE
5
150
100
AcDbEntity
8
0
100
AcDbSpline
70
4
71
5
72
12
73
6
74
0
42
0.000000001
43
0.0000000001
44
0.0000000001
40
-0.96904871532159509
40
-0.96904871532159509
40
-0.96904871532159509
40
-0.96904871532159509
40
-0.96904871532159509
40
-0.96904871532159509
40
-0.95112158949608516
40
-0.95112158949608516
40
-0.95112158949608516
40
-0.95112158949608516
40
-0.95112158949608516
40
-0.95112158949608516
41
1
41
1
41
1
41
1
41
1
41
1
10
11.663992280886792
20
12.229529809328847
30
0
10
11.717601540076332
20
12.215141257391542
30
0
10
11.771209733478296
20
12.20074296970823
30
0
10
11.824816860016831
20
12.18633493645121
30
0
10
11.878422918270012
20
12.171917144631461
30
0
10
11.932027906443297
20
12.157489577856278
30
0
0
LINE
5
151
100
AcDbEntity
8
0
100
AcDbLine
10
11.932027906443297
20
12.157489577856278
30
0
11
9.184632660972083
21
7.3988614242269835
31
0
0
LINE
5
152
100
AcDbEntity
8
0
100
AcDbLine
10
9.184632660972083
20
7.3988614242269835
30
0
11
3.4111299690758257
21
7.3988614242269923
31
0
0
LINE
5
153
100
AcDbEntity
8
0
100
AcDbLine
10
3.4111299690758257
20
7.3988614242269923
30
0
11
3.3395067071625046
21
7.522916552864678
31
0
0
LINE
5
154
100
AcDbEntity
8
0
100
AcDbLine
10
31.146942610673129
20
7.3988614242269897
30
0
11
29.411129969075827
21
7.3988614242269923
31
0
0
LINE
5
155
100
AcDbEntity
8
0
100
AcDbLine
10
29.411129969075827
20
7.3988614242269923
30
0
11
29.308243925408952
21
7.5770652792477753
31
0
0
SPLINE
5
156
100
AcDbEntity
8
0
100
AcDbSpline
70
4
71
5
72
12
73
6
74
0
42
0.000000001
43
0.0000000001
44
0.0000000001
40
0.033664930535299321
40
0.033664930535299321
40
0.033664930535299321
40
0.033664930535299321
40
0.033664930535299321
40
0.033664930535299321
40
0.12876733224334055
40
0.12876733224334055
40
0.12876733224334055
40
0.12876733224334055
40
0.12876733224334055
40
0.12876733224334055
41
1
41
1
41
1
41
1
41
1
41
1
10
29.308243925408952
20
7.5770652792477762
30
0
10
29.71956421261816
20
7.588057232566503
30
0
10
30.108723058155658
20
7.5753356623904526
30
0
10
30.475956369650817
20
7.5391529981957675
30
0
10
30.821796688432009
20
7.4800790779690329
30
0
10
31.146942610668667
20
7.3988614242281026
30
0
0
LWPOLYLINE
5
157
100
AcDbEntity
8
0
100
AcDbPolyline
90
5
70
1
43
0.0
10
31.441909121436499
20
-7.6011385757730121
10
31.441909121436499
20
2.398861424226995
10
29.41112996907583
20
2.3988614242269923
10
26.524378623127699
20
-2.6011385757730121
10
29.41112996907583
20
-7.6011385757730121
0
LWPOLYLINE
5
158
100
AcDbEntity
8
0
100
AcDbPolyline
90
5
70
1
43
0.0
10
31.441909121436503
20
-22.601138575773014
10
31.441909121436499
20
-12.601138575773007
10
29.411129969075837
20
-12.601138575773007
10
26.524378623127699
20
-17.601138575773007
10
29.411129969075827
20
-22.601138575773007
0
LINE
5
159
100
AcDbEntity
8
0
100
AcDbLine
10
31.441909121436503
20
-27.601138575773007
30
0
11
31.441909121436495
21
-37.427471351992416
31
0
0
SPLINE
5
160
100
AcDbEntity
8
0
100
AcDbSpline
70
4
71
5
72
12
73
6
74
0
42
0.000000001
43
0.0000000001
44
0.0000000001
40
-0.071957523322835726
40
-0.071957523322835726
40
-0.071957523322835726
40
-0.071957523322835726
40
-0.071957523322835726
40
-0.071957523322835726
40
0
40
0
40
0
40
0
40
0
40
0
41
1
41
1
41
1
41
1
41
1
41
1
10
31.441909121436495
20
-37.427471351992416
30
0
10
31.172896724810563
20
-37.373237979654178
30
0
10
30.891118614899796
20
-37.304477847252485
30
0
10
30.596373260402494
20
-37.220961621979995
30
0
10
30.288541171040162
20
-37.122553329718627
30
0
10
29.967618109784659
20
-37.009248148936685
30
0
0
ARC
5
161
100
AcDbEntity
8
0
100
AcDbCircle
10
28.136558266789649
20
-42.195501117253123
30
0
40
5.4999999999999964
210
0
220
-0
230
1
100
AcDbArc
50
70.55389797965951
51
81.803359429350564
0
LINE
5
162
100
AcDbEntity
8
0
100
AcDbLine
10
28.920698215736561
20
-36.751685861344313
30
0
11
26.524378623127699
21
-32.601138575773014
31
0
0
LINE
5
163
100
AcDbEntity
8
0
100
AcDbLine
10
26.524378623127699
20
-32.601138575773014
30
0
11
29.41112996907583
21
-27.601138575773007
31
0
0
LINE
5
164
100
AcDbEntity
8
0
100
AcDbLine
10
29.41112996907583
20
-27.601138575773007
30
0
11
31.441909121436503
21
-27.601138575773007
31
0
0
SPLINE
5
165
100
AcDbEntity
8
0
100
AcDbSpline
70
4
71
5
72
12
73
6
74
0
42
0.000000001
43
0.0000000001
44
0.0000000001
40
-0.1564287926533128
40
-0.1564287926533128
40
-0.1564287926533128
40
-0.1564287926533128
40
-0.1564287926533128
40
-0.1564287926533128
40
0
40
0
40
0
40
0
40
0
40
0
41
1
41
1
41
1
41
1
41
1
41
1
10
10.294426100572007
20
-59.523357199075107
30
0
10
9.9511295647435833
20
-59.496390783693357
30
0
10
9.611546362536437
20
-59.482882725620939
30
0
10
9.2763091030131779
20
-59.484998357976473
30
0
10
8.9458126764875274
20
-59.504097621510638
30
0
10
8.620061567688218
20
-59.540196259213907
30
0
0
LINE
5
166
100
AcDbEntity
8
0
100
AcDbLine
10
8.620061567688218
20
-59.540196259213907
30
0
11
1.8590445798981203
21
-60.289429327514114
31
0
0
LINE
5
167
100
AcDbEntity
8
0
100
AcDbLine
10
1.8590445798981203
20
-60.289429327514114
30
0
11
3.4111299690758301
21
-57.601138575773007
31
0
0
LINE
5
168
100
AcDbEntity
8
0
100
AcDbLine
10
3.4111299690758301
20
-57.601138575773007
30
0
11
9.1846326609720919
21
-57.601138575773007
31
0
0
LINE
5
169
100
AcDbEntity
8
0
100
AcDbLine
10
9.1846326609720919
20
-57.601138575773007
30
0
11
10.294426100572007
21
-59.523357199075107
31
0
0
LWPOLYLINE
5
170
100
AcDbEntity
8
0
100
AcDbPolyline
90
3
70
1
43
0.0
10
-52.918997049846354
20
-40.101138575773014
10
-55.081109578559726
20
-36.356249824360226
10
-54.421482027426826
20
-42.703518894551387
0
SPLINE
5
171
100
AcDbEntity
8
0
100
AcDbSpline
70
0
71
3
72
8
73
4
74
0
42
0.000000001
43
0.0000000001
44
0.0000000001
40
-0.74861363021721772
40
-0.74861363021721772
40
-0.74861363021721772
40
-0.74861363021721772
40
-0.58986787579341393
40
-0.58986787579341393
40
-0.58986787579341393
40
-0.58986787579341393
10
-55.607491236719625
20
-29.757747103291084
30
0
10
-55.647184294477334
20
-28.754543026140027
30
0
10
-55.669327633153941
20
-27.747055142649373
30
0
10
-55.677066074713828
20
-26.734070684607861
30
0
0
SPLINE
5
172
100
AcDbEntity
8
0
100
AcDbSpline
70
4
71
5
72
13
73
7
74
0
42
0.000000001
43
0.0000000001
44
0.0000000001
40
-1
40
-1
40
-1
40
-1
40
-1
40
-1
40
-0.80000000000000004
40
-0.66581620665887975
40
-0.66581620665887975
40
-0.66581620665887975
40
-0.66581620665887975
40
-0.66581620665887975
40
-0.66581620665887975
41
1
41
1
41
1
41
1
41
1
41
1
41
1
10
-55.677066074713828
20
-26.734070684607861
30
0
10
-55.682731146212767
20
-25.992496384704221
30
0
10
-55.680874291267813
20
-24.753774216523002
30
0
10
-55.660115469224124
20
-23.515700445749591
30
0
10
-55.622769871846117
20
-22.27820217581128
30
0
10
-55.572051496940645
20
-21.041184438817034
30
0
10
-55.549738903574628
20
-20.544560023517707
30
0
0
LINE
5
173
100
AcDbEntity
8
0
100
AcDbLine
10
-55.549738903574621
20
-20.544560023517707
30
0
11
-52.918997049846361
21
-25.101138575773017
31
0
0
LINE
5
174
100
AcDbEntity
8
0
100
AcDbLine
10
-52.918997049846361
20
-25.101138575773017
30
0
11
-55.607491236719625
21
-29.757747103291084
31
0
0
SPLINE
5
175
100
AcDbEntity
8
0
100
AcDbSpline
70
4
71
5
72
13
73
7
74
0
42
0.000000001
43
0.0000000001
44
0.0000000001
40
-0.3104517019878173
40
-0.3104517019878173
40
-0.3104517019878173
40
-0.3104517019878173
40
-0.3104517019878173
40
-0.3104517019878173
40
-0.20000000000000001
40
0
40
0
40
0
40
0
40
0
40
0
41
1
41
1
41
1
41
1
41
1
41
1
41
1
10
-55.154092281274181
20
-13.972437076362279
30
0
10
-55.125304403194413
20
-13.564097204976866
30
0
10
-55.043318487458173
20
-12.416427443160668
30
0
10
-54.958860137380213
20
-11.268944013405019
30
0
10
-54.873194303967317
20
-10.121625649039114
30
0
10
-54.78685340145303
20
-8.9744702061841775
30
0
10
-54.730950968049683
20
-8.2355144066880754
30
0
0
LINE
5
176
100
AcDbEntity
8
0
100
AcDbLine
10
-54.730950968049676
20
-8.2355144066880772
30
0
11
-54.645819814519228
21
-7.1101938116930388
31
0
0
LINE
5
177
100
AcDbEntity
8
0
100
AcDbLine
10
-54.645819814519228
20
-7.1101938116930388
30
0
11
-52.918997049846354
21
-10.10113857577301
31
0
0
LINE
5
178
100
AcDbEntity
8
0
100
AcDbLine
10
-52.918997049846354
20
-10.10113857577301
30
0
11
-55.154092281274181
21
-13.972437076362279
31
0
0
SPLINE
5
179
100
AcDbEntity
8
0
100
AcDbSpline
70
0
71
3
72
8
73
4
74
0
42
0.000000001
43
0.0000000001
44
0.0000000001
40
-0.91214939884659918
40
-0.91214939884659918
40
-0.91214939884659918
40
-0.91214939884659918
40
-0.69822722053294328
40
-0.69822722053294328
40
-0.69822722053294328
40
-0.69822722053294328
10
-53.909363161765498
20
3.1834970002885887
30
0
10
-53.883511559161747
20
4.4329934905555
30
0
10
-53.941695800120755
20
5.6797007679678941
30
0
10
-54.085302967216137
20
6.918962530279698
30
0
0
LINE
5
180
100
AcDbEntity
8
0
100
AcDbLine
10
-54.085302967216123
20
6.9189625302796989
30
0
11
-52.918997049846361
21
4.8988614242269835
31
0
0
LINE
5
181
100
AcDbEntity
8
0
100
AcDbLine
10
-52.918997049846361
20
4.8988614242269835
30
0
11
-53.909363161765498
21
3.1834970002885887
31
0
0
LINE
5
182
100
AcDbEntity
8
0
100
AcDbLine
10
-8.3278678572288793
20
9.898861424226995
30
0
11
-6.8781139747936226
21
7.9494030745436408
31
0
0
SPLINE
5
183
100
AcDbEntity
8
0
100
AcDbSpline
70
0
71
3
72
8
73
4
74
0
42
0.000000001
43
0.0000000001
44
0.0000000001
40
-0.13007792352239628
40
-0.13007792352239628
40
-0.13007792352239628
40
-0.13007792352239628
40
-0.066521060514216745
40
-0.066521060514216745
40
-0.066521060514216745
40
-0.066521060514216745
10
-6.8781139747936004
20
7.9494030745436355
30
0
10
-6.2397480587290559
20
7.8035509196162085
30
0
10
-5.5973476188166096
20
7.6944897558458685
30
0
10
-4.9546766142736782
20
7.620457887968211
30
0
0
SPLINE
5
184
100
AcDbEntity
8
0
100
AcDbSpline
70
0
71
3
72
8
73
4
74
0
42
0.000000001
43
0.0000000001
44
0.0000000001
40
-0.066521060514216634
40
-0.066521060514216634
40
-0.066521060514216634
40
-0.066521060514216634
40
0
40
0
40
0
40
0
10
-4.9546766142736445
20
7.6204578879682057
30
0
10
-4.2820323904951358
20
7.5429732839461971
30
0
10
-3.6083760898378534
20
7.5042633013919646
30
0
10
-2.9355000377947604
20
7.5042633013919646
30
0
0
LINE
5
185
100
AcDbEntity
8
0
100
AcDbLine
10
-2.93550003779476
20
7.5042633013919646
30
0
11
-2.4232265249747078
21
7.5042633013919646
31
0
0
LINE
5
186
100
AcDbEntity
8
0
100
AcDbLine
10
-2.4232265249747078
20
7.5042633013919646
30
0
11
-0.91899704984635511
21
4.8988614242269835
31
0
0
LINE
5
187
100
AcDbEntity
8
0
100
AcDbLine
10
-0.91899704984635511
20
4.8988614242269835
30
0
11
-3.8057483957944926
21
-0.10113857577301211
31
0
0
LINE
5
188
100
AcDbEntity
8
0
100
AcDbLine
10
-3.8057483957944926
20
-0.10113857577301211
30
0
11
-9.5984889741576005
21
-0.10113857577301211
31
0
0
LINE
5
189
100
AcDbEntity
8
0
100
AcDbLine
10
-9.5984889741576005
20
-0.10113857577301211
30
0
11
-12.485240320105721
21
4.898861424226995
31
0
0
LINE
5
190
100
AcDbEntity
8
0
100
AcDbLine
10
-12.485240320105721
20
4.898861424226995
30
0
11
-9.5984889741575827
21
9.8988614242269879
31
0
0
LINE
5
191
100
AcDbEntity
8
0
100
AcDbLine
10
-9.5984889741575827
20
9.8988614242269879
30
0
11
-8.3278678572288793
21
9.898861424226995
31
0
0
ARC
5
192
100
AcDbEntity
8
0
100
AcDbCircle
10
28.136558266789649
20
-42.195501117253123
30
0
40
5.4999999999999973
210
0
220
0
230
1
100
AcDbArc
50
136.90158079356365
51
149.02903202925521
0
SPLINE
5
193
100
AcDbEntity
8
0
100
AcDbSpline
70
4
71
5
72
13
73
7
74
0
42
0.000000001
43
0.0000000001
44
0.0000000001
40
0
40
0
40
0
40
0
40
0
40
0
40
0.20000000000000001
40
0.33783077438571735
40
0.33783077438571735
40
0.33783077438571735
40
0.33783077438571735
40
0.33783077438571735
40
0.33783077438571735
41
1
41
1
41
1
41
1
41
1
41
1
41
1
10
23.4207033715983
20
-39.365180886696209
30
0
10
23.029320320577771
20
-40.017299914473824
30
0
10
22.434619803893909
20
-41.13340141960002
30
0
10
21.951987791449238
20
-42.27409534213183
30
0
10
21.568367410179473
20
-43.43651646962941
30
0
10
21.266368761223717
20
-44.616848746419251
30
0
10
21.155592607249698
20
-45.101138575773007
30
0
0
LINE
5
194
100
AcDbEntity
8
0
100
AcDbLine
10
21.155592607249698
20
-45.101138575772993
30
0
11
16.401511025842396
21
-45.101138575773021
31
0
0
LINE
5
195
100
AcDbEntity
8
0
100
AcDbLine
10
16.401511025842396
20
-45.101138575773021
30
0
11
13.51475967989427
21
-40.101138575773007
31
0
0
LINE
5
196
100
AcDbEntity
8
0
100
AcDbLine
10
13.51475967989427
20
-40.101138575773007
30
0
11
16.401511025842414
21
-35.101138575773014
31
0
0
LINE
5
197
100
AcDbEntity
8
0
100
AcDbLine
10
16.401511025842414
20
-35.101138575773014
30
0
11
22.194251604205522
21
-35.101138575773007
31
0
0
LINE
5
198
100
AcDbEntity
8
0
100
AcDbLine
10
22.194251604205522
20
-35.101138575773007
30
0
11
24.120562063327991
21
-38.437606162124453
31
0
0
LINE
5
199
100
AcDbEntity
8
0
100
AcDbLine
10
-40.002722310583465
20
27.270505517148777
30
0
11
-42.815367339027908
21
22.398861424226993
31
0
0
LINE
5
200
100
AcDbEntity
8
0
100
AcDbLine
10
-42.815367339027908
20
22.398861424226993
30
0
11
-48.58887003092417
21
22.398861424226986
31
0
0
LINE
5
201
100
AcDbEntity
8
0
100
AcDbLine
10
-48.58887003092417
20
22.398861424226986
30
0
11
-51.475621376872304
21
27.398861424226986
31
0
0
LINE
5
202
100
AcDbEntity
8
0
100
AcDbLine
10
-51.475621376872304
20
27.398861424226986
30
0
11
-48.685270190189094
21
32.231891450522426
31
0
0
SPLINE
5
203
100
AcDbEntity
8
0
100
AcDbSpline
70
0
71
3
72
11
73
7
74
0
42
0.000000001
43
0.0000000001
44
0.0000000001
40
0.16522172705304267
40
0.16522172705304267
40
0.16522172705304267
40
0.16522172705304267
40
0.56125338077990727
40
0.56125338077990727
40
0.56125338077990727
40
0.63990721955197172
40
0.63990721955197172
40
0.63990721955197172
40
0.63990721955197172
10
-48.685270190186415
20
32.231891450520521
30
0
10
-46.377612637945084
20
30.586876221734336
30
0
10
-43.978219684351451
20
29.179193172404151
30
0
10
-41.495579636225976
20
27.968041218160344
30
0
10
-41.002515083842979
20
27.727500469356304
30
0
10
-40.504990394541608
20
27.494712614003891
30
0
10
-40.002722310583472
20
27.270505517148777
30
0
0
LINE
5
204
100
AcDbEntity
8
0
100
AcDbLine
10
-53.667720806822452
20
36.19568901214344
30
0
11
-52.918997049846361
21
34.898861424226986
31
0
0
LINE
5
205
100
AcDbEntity
8
0
100
AcDbLine
10
-52.918997049846361
20
34.898861424226986
30
0
11
-55.805748395794495
21
29.898861424226993
31
0
0
LINE
5
206
100
AcDbEntity
8
0
100
AcDbLine
10
-55.805748395794495
20
29.898861424226993
30
0
11
-61.335214722870447
21
29.898861424226979
31
0
0
ARC
5
207
100
AcDbEntity
8
0
100
AcDbCircle
10
-65.000000968575478
20
34.000000506639481
30
0
40
5.5
210
-0
220
0
230
1
100
AcDbArc
50
311.78403871554912
51
353.44248555223805
0
SPLINE
5
208
100
AcDbEntity
8
0
100
AcDbSpline
70
4
71
5
72
14
73
8
74
0
42
0.000000001
43
0.0000000001
44
0.0000000001
40
0
40
0
40
0
40
0
40
0
40
0
40
0.20000000000000001
40
0.40000000000000002
40
0.47726649396455068
40
0.47726649396455068
40
0.47726649396455068
40
0.47726649396455068
40
0.47726649396455068
40
0.47726649396455068
41
1
41
1
41
1
41
1
41
1
41
1
41
1
41
1
10
-59.535983509351368
20
33.371897644606449
30
0
10
-59.443423823889567
20
34.177096550636804
30
0
10
-59.143827617367819
20
35.578958846344527
30
0
10
-58.513425498838494
20
36.754426195914796
30
0
10
-57.602291349916811
20
37.418501012588983
30
0
10
-56.485088034330587
20
37.707192112111095
30
0
10
-55.778804779201465
20
37.770622114321839
30
0
10
-55.577786298047549
20
37.78065306839278
30
0
0
LINE
5
209
100
AcDbEntity
8
0
100
AcDbLine
10
-55.577786298047556
20
37.780653068392787
30
0
11
-53.667720806822452
21
36.19568901214344
31
0
0
SPLINE
5
210
100
AcDbEntity
8
0
100
AcDbSpline
70
0
71
3
72
8
73
4
74
0
42
0.000000001
43
0.0000000001
44
0.0000000001
40
0.98234234153174904
40
0.98234234153174904
40
0.98234234153174904
40
0.98234234153174904
40
1
40
1
40
1
40
1
10
-33.151769799285624
20
24.898861424226425
30
0
10
-33.028995692797345
20
24.868892190521635
30
0
10
-32.906007797131494
20
24.83954136640596
30
0
10
-32.782818143408349
20
24.810816374418053
30
0
0
LINE
5
211
100
AcDbEntity
8
0
100
AcDbLine
10
-32.782818143408342
20
24.810816374418046
30
0
11
-29.283870446843014
21
23.994942301293211
31
0
0
LINE
5
212
100
AcDbEntity
8
0
100
AcDbLine
10
-29.283870446843014
20
23.994942301293211
30
0
11
-26.918997049846357
21
19.89886142422699
31
0
0
LINE
5
213
100
AcDbEntity
8
0
100
AcDbLine
10
-26.918997049846357
20
19.89886142422699
30
0
11
-29.805748395794488
21
14.898861424226993
31
0
0
LINE
5
214
100
AcDbEntity
8
0
100
AcDbLine
10
-29.805748395794488
20
14.898861424226993
30
0
11
-35.598488974157604
21
14.898861424226983
31
0
0
LINE
5
215
100
AcDbEntity
8
0
100
AcDbLine
10
-35.598488974157604
20
14.898861424226983
30
0
11
-38.485240320105731
21
19.898861424226997
31
0
0
LINE
5
216
100
AcDbEntity
8
0
100
AcDbLine
10
-38.485240320105731
20
19.898861424226997
30
0
11
-35.59848897415759
21
24.898861424226986
31
0
0
LINE
5
217
100
AcDbEntity
8
0
100
AcDbLine
10
-35.59848897415759
20
24.898861424226986
30
0
11
-33.151769799285624
21
24.898861424226425
31
0
0
LINE
5
218
100
AcDbEntity
8
0
100
AcDbLine
10
-63.280526538919872
20
21.985486901819307
30
0
11
-61.59848897415759
21
24.898861424226986
31
0
0
LINE
5
219
100
AcDbEntity
8
0
100
AcDbLine
10
-61.59848897415759
20
24.898861424226986
30
0
11
-55.805748395794481
21
24.898861424226997
31
0
0
LINE
5
220
100
AcDbEntity
8
0
100
AcDbLine
10
-55.805748395794481
20
24.898861424226997
30
0
11
-52.918997049846354
21
19.89886142422699
31
0
0
LINE
5
221
100
AcDbEntity
8
0
100
AcDbLine
10
-52.918997049846354
20
19.89886142422699
30
0
11
-55.805748395794481
21
14.898861424226993
31
0
0
LINE
5
222
100
AcDbEntity
8
0
100
AcDbLine
10
-55.805748395794481
20
14.898861424226993
30
0
11
-56.476610937775845
21
14.898861424226993
31
0
0
SPLINE
5
223
100
AcDbEntity
8
0
100
AcDbSpline
70
0
71
3
72
11
73
7
74
0
42
0.000000001
43
0.0000000001
44
0.0000000001
40
-0.22990645763546708
40
-0.22990645763546708
40
-0.22990645763546708
40
-0.22990645763546708
40
-0.18394581109009889
40
-0.18394581109009889
40
-0.18394581109009889
40
-0.14101636207671961
40
-0.14101636207671961
40
-0.14101636207671961
40
-0.14101636207671961
10
-56.476610937775604
20
14.898861424226624
30
0
10
-56.617901545343102
20
15.14844691543335
30
0
10
-56.767270331034709
20
15.395894774057147
30
0
10
-56.925287769700518
20
15.640880339547714
30
0
10
-57.072883638912948
20
15.869708611847136
30
0
10
-57.228031523951344
20
16.095755992935352
30
0
10
-57.390921081519522
20
16.318189387802583
30
0
0
SPLINE
5
224
100
AcDbEntity
8
0
100
AcDbSpline
70
0
71
3
72
8
73
4
74
0
42
0.000000001
43
0.0000000001
44
0.0000000001
40
-0.14101636207669807
40
-0.14101636207669807
40
-0.14101636207669807
40
-0.14101636207669807
40
0
40
0
40
0
40
0
10
-57.390921081519863
20
16.318189387803052
30
0
10
-57.925987180817124
20
17.048847452824944
30
0
10
-58.547379414995582
20
17.739886377848858
30
0
10
-59.239649487093601
20
18.360847886941251
30
0
0
LINE
5
225
100
AcDbEntity
8
0
100
AcDbLine
10
-59.239649487093601
20
18.360847886941251
30
0
11
-63.280526538919872
21
21.985486901819307
31
0
0
LINE
5
226
100
AcDbEntity
8
0
100
AcDbLine
10
22.702393193585966
20
9.0187343739812782
30
0
11
25.081002950153646
21
4.8988614242269835
31
0
0
LINE
5
227
100
AcDbEntity
8
0
100
AcDbLine
10
25.081002950153646
20
4.8988614242269835
30
0
11
22.194251604205508
21
-0.10113857577301211
31
0
0
LINE
5
228
100
AcDbEntity
8
0
100
AcDbLine
10
22.194251604205508
20
-0.10113857577301211
30
0
11
16.401511025842403
21
-0.10113857577301211
31
0
0
LINE
5
229
100
AcDbEntity
8
0
100
AcDbLine
10
16.401511025842403
20
-0.10113857577301211
30
0
11
13.514759679894279
21
4.898861424226995
31
0
0
LINE
5
230
100
AcDbEntity
8
0
100
AcDbLine
10
13.514759679894279
20
4.898861424226995
30
0
11
16.401511025842417
21
9.8988614242269879
31
0
0
LINE
5
231
100
AcDbEntity
8
0
100
AcDbLine
10
16.401511025842417
20
9.8988614242269879
30
0
11
19.905384460516746
21
9.8988614242269932
31
0
0
SPLINE
5
232
100
AcDbEntity
8
0
100
AcDbSpline
70
4
71
5
72
13
73
7
74
0
42
0.000000001
43
0.0000000001
44
0.0000000001
40
-0.4170142796962153
40
-0.4170142796962153
40
-0.4170142796962153
40
-0.4170142796962153
40
-0.4170142796962153
40
-0.4170142796962153
40
-0.40000000000000002
40
-0.22902785802535885
40
-0.22902785802535885
40
-0.22902785802535885
40
-0.22902785802535885
40
-0.22902785802535885
40
-0.22902785802535885
41
1
41
1
41
1
41
1
41
1
41
1
41
1
10
19.905384460516728
20
9.8988614242269986
30
0
10
19.956076557044042
20
9.883493780128914
30
0
10
20.516133594302733
20
9.7134543127144077
30
0
10
21.075888988012718
20
9.5406593947340941
30
0
10
21.635300960931403
20
9.3647273998368181
30
0
10
22.19432256495756
20
9.1852294669624328
30
0
10
22.702393193585195
20
9.0187343739815322
30
0
0
LWPOLYLINE
5
233
100
AcDbEntity
8
0
100
AcDbPolyline
90
7
70
1
43
0.0
10
-51.475621376872304
20
-47.601138575773007
10
-50.372040052545692
20
-49.512597499790836
42
-0.30582487988351897
10
-45.050710771499041
20
-52.601138575773014
10
-42.815367339027915
20
-52.601138575773021
10
-39.928615993079781
20
-47.601138575773021
10
-42.815367339027908
20
-42.601138575773007
10
-48.588870030924163
20
-42.601138575773007
0
LWPOLYLINE
5
234
100
AcDbEntity
8
0
100
AcDbPolyline
90
6
70
1
43
0.0
10
-38.485240320105724
20
-55.101138575773007
10
-36.138244048524477
20
-59.166255363326457
10
-29.265993321427608
20
-59.166255363326457
10
-26.918997049846354
20
-55.101138575773021
10
-29.805748395794481
20
-50.101138575773007
10
-35.598488974157583
20
-50.101138575773014
0
SPLINE
5
235
100
AcDbEntity
8
0
100
AcDbSpline
70
4
71
5
72
13
73
7
74
0
42
0.000000001
43
0.0000000001
44
0.0000000001
40
0.61716838237846949
40
0.61716838237846949
40
0.61716838237846949
40
0.61716838237846949
40
0.61716838237846949
40
0.61716838237846949
40
0.80000000000000004
40
1
40
1
40
1
40
1
40
1
40
1
41
1
41
1
41
1
41
1
41
1
41
1
41
1
10
20.454674033936936
20
-50.101138575773014
30
0
10
20.407641183116468
20
-50.765470417146965
30
0
10
20.333600286164181
20
-52.161880078227526
30
0
10
20.303735493298941
20
-53.567983784913729
30
0
10
20.307793208345011
20
-54.981531478469194
30
0
10
20.343657967402947
20
-56.402058939516849
30
0
10
20.371079148783142
20
-57.146080759825082
30
0
0
SPLINE
5
236
100
AcDbEntity
8
0
100
AcDbSpline
70
4
71
5
72
13
73
7
74
0
42
0.000000001
43
0.0000000001
44
0.0000000001
40
0.35738839097980085
40
0.35738839097980085
40
0.35738839097980085
40
0.35738839097980085
40
0.35738839097980085
40
0.35738839097980085
40
0.40000000000000002
40
0.43813090636970131
40
0.43813090636970131
40
0.43813090636970131
40
0.43813090636970131
40
0.43813090636970131
40
0.43813090636970131
41
1
41
1
41
1
41
1
41
1
41
1
41
1
10
20.371079148779323
20
-57.146080759830667
30
0
10
20.23695943962721
20
-57.338394200406924
30
0
10
19.982430545311956
20
-57.699534737539118
30
0
10
19.725753134409025
20
-58.052895913125759
30
0
10
19.464383552660848
20
-58.395628925383214
30
0
10
19.196121011606717
20
-58.72536662293561
30
0
10
19.067686721646027
20
-58.877970111167912
30
0
0
SPLINE
5
237
100
AcDbEntity
8
0
100
AcDbSpline
70
4
71
5
72
12
73
6
74
0
42
0.000000001
43
0.0000000001
44
0.0000000001
40
-1
40
-1
40
-1
40
-1
40
-1
40
-1
40
-0.80047308837650244
40
-0.80047308837650244
40
-0.80047308837650244
40
-0.80047308837650244
40
-0.80047308837650244
40
-0.80047308837650244
41
1
41
1
41
1
41
1
41
1
41
1
10
19.067686721646023
20
-58.877970111167919
30
0
10
18.757087354170046
20
-59.247019116181278
30
0
10
18.426773878278205
20
-59.551480478707084
30
0
10
18.076765327138762
20
-59.791416817862228
30
0
10
17.708703153046194
20
-59.972262503959506
30
0
10
17.324729726174702
20
-60.101138575773021
30
0
0
LINE
5
238
100
AcDbEntity
8
0
100
AcDbLine
10
17.324729726174702
20
-60.101138575773021
30
0
11
16.401511025842403
21
-60.101138575773014
31
0
0
LINE
5
239
100
AcDbEntity
8
0
100
AcDbLine
10
16.401511025842403
20
-60.101138575773014
30
0
11
13.514759679894279
21
-55.101138575773007
31
0
0
LINE
5
240
100
AcDbEntity
8
0
100
AcDbLine
10
13.514759679894279
20
-55.101138575773007
30
0
11
16.401511025842417
21
-50.101138575773014
31
0
0
LINE
5
241
100
AcDbEntity
8
0
100
AcDbLine
10
16.401511025842417
20
-50.101138575773014
30
0
11
20.454674033936936
21
-50.101138575773014
31
0
0
LWPOLYLINE
5
242
100
AcDbEntity
8
0
100
AcDbPolyline
90
6
70
1
43
0.0
10
9.1846326609720919
20
2.3988614242270012
10
3.4111299690758301
20
2.3988614242269923
10
0.52437862312769923
20
-2.6011385757730121
10
3.4111299690758301
20
-7.6011385757730121
10
9.1846326609720919
20
-7.6011385757730077
10
12.071384006920223
20
-2.6011385757730077
0
LWPOLYLINE
5
243
100
AcDbEntity
8
0
100
AcDbPolyline
90
6
70
1
43
0.0
10
-9.5984889741576023
20
-45.101138575773021
10
-3.8057483957944882
20
-45.101138575773007
10
-0.91899704984635733
20
-40.101138575773014
10
-3.8057483957944793
20
-35.101138575773007
10
-9.5984889741575863
20
-35.101138575773014
10
-12.485240320105728
20
-40.101138575773007
0
LWPOLYLINE
5
244
100
AcDbEntity
8
0
100
AcDbPolyline
90
6
70
1
43
0.0
10
-9.5984889741576005
20
-30.101138575773014
10
-3.8057483957944926
20
-30.101138575773014
10
-0.91899704984635511
20
-25.101138575773017
10
-3.8057483957944793
20
-20.101138575773007
10
-9.5984889741575827
20
-20.101138575773014
10
-12.485240320105721
20
-25.101138575773003
0
LWPOLYLINE
5
245
100
AcDbEntity
8
0
100
AcDbPolyline
90
6
70
1
43
0.0
10
3.4111299690758345
20
-12.601138575773007
10
0.52437862312769923
20
-17.601138575773007
10
3.4111299690758257
20
-22.601138575773007
10
9.184632660972083
20
-22.601138575773017
10
12.071384006920221
20
-17.601138575773017
10
9.1846326609720936
20
-12.601138575773007
0
LWPOLYLINE
5
246
100
AcDbEntity
8
0
100
AcDbPolyline
90
6
70
1
43
0.0
10
9.1846326609720919
20
-27.601138575773
10
3.4111299690758301
20
-27.601138575773007
10
0.52437862312769923
20
-32.601138575773014
10
3.4111299690758301
20
-37.601138575773014
10
9.1846326609720919
20
-37.601138575773007
10
12.071384006920223
20
-32.601138575773007
0
LWPOLYLINE
5
247
100
AcDbEntity
8
0
100
AcDbPolyline
90
6
70
1
43
0.0
10
-3.8057483957944793
20
-50.101138575773007
10
-9.5984889741575827
20
-50.101138575773014
10
-12.485240320105721
20
-55.101138575773007
10
-9.5984889741576005
20
-60.101138575773014
10
-3.8057483957944926
20
-60.101138575773014
10
-0.91899704984635511
20
-55.101138575773021
0
LWPOLYLINE
5
248
100
AcDbEntity
8
0
100
AcDbPolyline
90
6
70
1
43
0.0
10
-16.815367339027919
20
-52.601138575773007
10
-13.928615993079783
20
-47.601138575773007
10
-16.815367339027905
20
-42.601138575773007
10
-22.588870030924166
20
-42.601138575772985
10
-25.475621376872301
20
-47.601138575772993
10
-22.588870030924177
20
-52.601138575773007
0
LWPOLYLINE
5
249
100
AcDbEntity
8
0
100
AcDbPolyline
90
6
70
1
43
0.0
10
-22.588870030924166
20
-12.601138575773007
10
-25.475621376872301
20
-17.601138575773007
10
-22.588870030924177
20
-22.601138575773007
10
-16.815367339027919
20
-22.601138575773017
10
-13.928615993079781
20
-17.601138575773017
10
-16.815367339027908
20
-12.601138575773007
0
LWPOLYLINE
5
250
100
AcDbEntity
8
0
100
AcDbPolyline
90
6
70
1
43
0.0
10
-16.815367339027908
20
-27.601138575773
10
-22.58887003092417
20
-27.601138575773007
10
-25.475621376872301
20
-32.601138575773014
10
-22.58887003092417
20
-37.601138575773014
10
-16.815367339027908
20
-37.601138575773007
10
-13.928615993079777
20
-32.601138575773007
0
LWPOLYLINE
5
251
100
AcDbEntity
8
0
100
AcDbPolyline
90
8
70
1
43
0.0
10
-48.58887003092417
20
2.3988614242269923
10
-49.751649817839471
20
0.38486775527558859
42
0.22261378116546165
10
-50.600060350345835
20
-1.0846223927020204
10
-51.475621376872304
20
-2.6011385757730121
10
-48.58887003092417
20
-7.6011385757730121
10
-42.815367339027908
20
-7.6011385757730077
10
-39.928615993079781
20
-2.6011385757730077
10
-42.815367339027908
20
2.3988614242270012
0
LWPOLYLINE
5
252
100
AcDbEntity
8
0
100
AcDbPolyline
90
6
70
1
43
0.0
10
3.4111299690758345
20
-42.601138575773007
10
0.52437862312769923
20
-47.601138575773007
10
3.4111299690758257
20
-52.601138575773007
10
9.184632660972083
20
-52.601138575773021
10
12.071384006920221
20
-47.601138575773021
10
9.1846326609720936
20
-42.601138575773007
0
LWPOLYLINE
5
253
100
AcDbEntity
8
0
100
AcDbPolyline
90
6
70
1
43
0.0
10
22.194251604205522
20
-20.101138575773007
10
16.401511025842417
20
-20.101138575773014
10
13.514759679894279
20
-25.101138575773003
10
16.401511025842403
20
-30.101138575773014
10
22.194251604205508
20
-30.101138575773014
10
25.081002950153646
20
-25.101138575773017
0
LWPOLYLINE
5
254
100
AcDbEntity
8
0
100
AcDbPolyline
90
6
70
1
43
0.0
10
-42.815367339027908
20
-27.601138575773
10
-48.58887003092417
20
-27.601138575773007
10
-51.475621376872304
20
-32.601138575773014
10
-48.58887003092417
20
-37.601138575773014
10
-42.815367339027908
20
-37.601138575773007
10
-39.928615993079781
20
-32.601138575773007
0
LWPOLYLINE
5
255
100
AcDbEntity
8
0
100
AcDbPolyline
90
6
70
1
43
0.0
10
-48.588870030924163
20
-12.601138575773007
10
-51.475621376872304
20
-17.601138575773007
10
-48.588870030924184
20
-22.601138575773007
10
-42.815367339027915
20
-22.601138575773017
10
-39.928615993079781
20
-17.601138575773017
10
-42.815367339027908
20
-12.601138575773007
0
LWPOLYLINE
5
256
100
AcDbEntity
8
0
100
AcDbPolyline
90
6
70
1
43
0.0
10
-29.805748395794481
20
-35.101138575773007
10
-35.59848897415759
20
-35.101138575773014
10
-38.485240320105731
20
-40.101138575773007
10
-35.598488974157604
20
-45.101138575773021
10
-29.805748395794488
20
-45.101138575773007
10
-26.918997049846357
20
-40.101138575773014
0
LWPOLYLINE
5
257
100
AcDbEntity
8
0
100
AcDbPolyline
90
6
70
1
43
0.0
10
-29.805748395794481
20
-20.101138575773007
10
-35.598488974157583
20
-20.101138575773014
10
-38.485240320105724
20
-25.101138575773003
10
-35.598488974157604
20
-30.101138575773014
10
-29.805748395794495
20
-30.101138575773014
10
-26.918997049846354
20
-25.101138575773017
0
LWPOLYLINE
5
258
100
AcDbEntity
8
0
100
AcDbPolyline
90
6
70
1
43
0.0
10
-9.5984889741576023
20
-15.101138575773017
10
-3.8057483957944882
20
-15.101138575773007
10
-0.91899704984635733
20
-10.10113857577301
10
-3.8057483957944793
20
-5.101138575773005
10
-9.5984889741575863
20
-5.1011385757730121
10
-12.485240320105728
20
-10.101138575773003
0
LWPOLYLINE
5
259
100
AcDbEntity
8
0
100
AcDbPolyline
90
6
70
1
43
0.0
10
22.194251604205522
20
-5.101138575773005
10
16.401511025842414
20
-5.1011385757730121
10
13.51475967989427
20
-10.101138575773003
10
16.401511025842396
20
-15.101138575773017
10
22.194251604205512
20
-15.101138575773007
10
25.081002950153643
20
-10.10113857577301
0
LWPOLYLINE
5
260
100
AcDbEntity
8
0
100
AcDbPolyline
90
6
70
1
43
0.0
10
-16.815367339027908
20
2.3988614242270012
10
-22.58887003092417
20
2.3988614242269923
10
-25.475621376872301
20
-2.6011385757730121
10
-22.58887003092417
20
-7.6011385757730121
10
-16.815367339027908
20
-7.6011385757730077
10
-13.928615993079777
20
-2.6011385757730077
0
LWPOLYLINE
5
261
100
AcDbEntity
8
0
100
AcDbPolyline
90
6
70
1
43
0.0
10
-22.588870030924166
20
17.398861424226993
10
-25.475621376872301
20
12.398861424226993
10
-22.588870030924177
20
7.3988614242269923
10
-16.815367339027919
20
7.3988614242269835
10
-13.928615993079781
20
12.398861424226983
10
-16.815367339027908
20
17.398861424226993
0
LWPOLYLINE
5
262
100
AcDbEntity
8
0
100
AcDbPolyline
90
6
70
1
43
0.0
10
-48.588870030924163
20
17.398861424226993
10
-51.475621376872304
20
12.398861424226993
10
-48.588870030924184
20
7.3988614242269923
10
-42.815367339027915
20
7.3988614242269835
10
-39.928615993079781
20
12.398861424226983
10
-42.815367339027908
20
17.398861424226993
0
LWPOLYLINE
5
263
100
AcDbEntity
8
0
100
AcDbPolyline
90
6
70
1
43
0.0
10
-29.805748395794481
20
-5.101138575773005
10
-35.59848897415759
20
-5.1011385757730121
10
-38.485240320105731
20
-10.101138575773003
10
-35.598488974157604
20
-15.101138575773017
10
-29.805748395794488
20
-15.101138575773007
10
-26.918997049846357
20
-10.10113857577301
0
LWPOLYLINE
5
264
100
AcDbEntity
8
0
100
AcDbPolyline
90
6
70
1
43
0.0
10
-29.805748395794481
20
9.8988614242269932
10
-35.598488974157583
20
9.8988614242269879
10
-38.485240320105724
20
4.898861424226995
10
-35.598488974157604
20
-0.10113857577301211
10
-29.805748395794495
20
-0.10113857577301211
10
-26.918997049846354
20
4.8988614242269835
0
LINE
5
265
100
AcDbEntity
8
0
100
AcDbLine
10
-14.233669962083479
20
-62.072769602408059
30
0
11
-18.032554545855124
21
-62.493749161837904
31
0
0
SPLINE
5
266
100
AcDbEntity
8
0
100
AcDbSpline
70
0
71
3
72
17
73
13
74
0
42
0.000000001
43
0.0000000001
44
0.0000000001
40
-0.67480450586023022
40
-0.67480450586023022
40
-0.67480450586023022
40
-0.67480450586023022
40
-0.52027359468845735
40
-0.52027359468845735
40
-0.52027359468845735
40
-0.26013679734422868
40
-0.26013679734422868
40
-0.26013679734422868
40
-0.059307953157808263
40
-0.059307953157808263
40
-0.059307953157808263
40
-0.050632064679049807
40
-0.050632064679049807
40
-0.050632064679049807
40
-0.050632064679049807
10
-18.032554545855124
20
-62.493749161837904
30
0
10
-18.163623638125301
20
-62.397775198051626
30
0
10
-18.37918278518616
20
-62.214039327354072
30
0
10
-18.654090975580878
20
-61.961988534796134
30
0
10
-19.116870465268139
20
-61.53768710897193
30
0
10
-19.731968793489351
20
-60.913341299235924
30
0
10
-20.656061338555713
20
-60.308700319417454
30
0
10
-21.369472280958412
20
-59.841909960020487
30
0
10
-22.318585899669369
20
-59.397809020796061
30
0
10
-23.383914450784967
20
-59.237219900086473
30
0
10
-23.429937081349614
20
-59.230282384174238
30
0
10
-23.476086167829628
20
-59.223855982943057
30
0
10
-23.522330547868727
20
-59.217939617980505
30
0
0
LINE
5
267
100
AcDbEntity
8
0
100
AcDbLine
10
-23.522330547868727
20
-59.217939617980505
30
0
11
-22.58887003092417
21
-57.601138575773007
31
0
0
LINE
5
268
100
AcDbEntity
8
0
100
AcDbLine
10
-22.58887003092417
20
-57.601138575773007
30
0
11
-16.815367339027908
21
-57.601138575773007
31
0
0
LINE
5
269
100
AcDbEntity
8
0
100
AcDbLine
10
-16.815367339027908
20
-57.601138575773007
30
0
11
-14.233669962083479
21
-62.072769602408059
31
0
0
CIRCLE
5
270
100
AcDbEntity
8
0
100
AcDbCircle
10
-65.000000968575478
20
34.000000506639481
30
0
40
2.0000000000000018
210
0
220
0
230
1
0
CIRCLE
5
271
100
AcDbEntity
8
0
100
AcDbCircle
10
28.000000417232513
20
13.000000193715096
30
0
40
2.0000000000000018
210
0
220
0
230
1
0
CIRCLE
5
272
100
AcDbEntity
8
0
100
AcDbCircle
10
-50
20
-55
30
0
40
2.0000000000000018
210
0
220
0
230
1
0
CIRCLE
5
273
100
AcDbEntity
8
0
100
AcDbCircle
10
28.136558266789649
20
-42.195501117253123
30
0
40
2.0000000000000018
210
0
220
0
230
1
0
SPLINE
5
274
100
AcDbEntity
8
0
100
AcDbSpline
70
4
71
5
72
12
73
6
74
0
42
0.000000001
43
0.0000000001
44
0.0000000001
40
0.88350164501432271
40
0.88350164501432271
40
0.88350164501432271
40
0.88350164501432271
40
0.88350164501432271
40
0.88350164501432271
40
1
40
1
40
1
40
1
40
1
40
1
41
1
41
1
41
1
41
1
41
1
41
1
10
-46.806277453942819
20
37.398861424226993
30
0
10
-47.150455003468117
20
37.626586596193718
30
0
10
-47.491461327352539
20
37.862351935590198
30
0
10
-47.829173315994602
20
38.106439155516256
30
0
10
-48.163510294131903
20
38.359036416255954
30
0
10
-48.494470484555251
20
38.620148078252214
30
0
0
SPLINE
5
275
100
AcDbEntity
8
0
100
AcDbSpline
70
4
71
5
72
13
73
7
74
0
42
0.000000001
43
0.0000000001
44
0.0000000001
40
-0.26922218686297616
40
-0.26922218686297616
40
-0.26922218686297616
40
-0.26922218686297616
40
-0.26922218686297616
40
-0.26922218686297616
40
-0.20000000000000001
40
0
40
0
40
0
40
0
40
0
40
0
41
1
41
1
41
1
41
1
41
1
41
1
41
1
10
-63.860900148758979
20
48.817472526248167
30
0
10
-64.025510764382076
20
48.810633129248231
30
0
10
-64.660064330565973
20
48.745411158782971
30
0
10
-65.270843305936452
20
48.52224995489388
30
0
10
-65.851349908682778
20
48.112146028628743
30
0
10
-66.397199770799887
20
47.493568386437353
30
0
10
-66.783555650716949
20
46.918880412445944
30
0
0
SPLINE
5
276
100
AcDbEntity
8
0
100
AcDbSpline
70
0
71
3
72
11
73
7
74
0
42
0.000000001
43
0.0000000001
44
0.0000000001
40
0.66443224227045083
40
0.66443224227045083
40
0.66443224227045083
40
0.66443224227045083
40
0.67801271907320482
40
0.67801271907320482
40
0.67801271907320482
40
0.91045444840009893
40
0.91045444840009893
40
0.91045444840009893
40
0.91045444840009893
10
-62.618671531894591
20
-28.334130552776955
30
0
10
-62.616615955788561
20
-28.427716933109263
30
0
10
-62.614448782907346
20
-28.521340516805587
30
0
10
-62.61216922395807
20
-28.615002245336463
30
0
10
-62.573152580288784
20
-30.218104586120806
30
0
10
-62.49499490947052
20
-31.835649083825114
30
0
10
-62.366550864775469
20
-33.458033782609753
30
0
0
SPLINE
5
277
100
AcDbEntity
8
0
100
AcDbSpline
70
0
71
3
72
11
73
7
74
0
42
0.000000001
43
0.0000000001
44
0.0000000001
40
-0.4899971539057017
40
-0.4899971539057017
40
-0.4899971539057017
40
-0.4899971539057017
40
-0.36291265934012851
40
-0.36291265934012851
40
-0.36291265934012851
40
0
40
0
40
0
40
0
10
-55.234899874696062
20
-66.089877217741019
30
0
10
-54.824071557446679
20
-66.2320672862717
30
0
10
-54.43511508003192
20
-66.324168880476591
30
0
10
-54.065682989788478
20
-66.399328140391475
30
0
10
-53.010703129545547
20
-66.613958941599662
30
0
10
-52.088536819921465
20
-66.666255363326457
30
0
10
-51.182301049597029
20
-66.666255363326457
30
0
0
SPLINE
5
278
100
AcDbEntity
8
0
100
AcDbSpline
70
0
71
3
72
20
73
16
74
0
42
0.000000001
43
0.0000000001
44
0.0000000001
40
0.15178543590832758
40
0.15178543590832758
40
0.15178543590832758
40
0.15178543590832758
40
0.17112855423075315
40
0.17112855423075315
40
0.17112855423075315
40
0.38593495030313996
40
0.38593495030313996
40
0.38593495030313996
40
0.63272958992324757
40
0.63272958992324757
40
0.63272958992324757
40
0.82115989298640035
40
0.82115989298640035
40
0.82115989298640035
40
1
40
1
40
1
40
1
10
18.044787328650575
20
-65.101138575772978
30
0
10
18.197287258920653
20
-65.007938436516426
30
0
10
18.346731297645253
20
-64.910805477806932
30
0
10
18.492818154147376
20
-64.809923541858652
30
0
10
20.115120754777337
20
-63.689624077799067
30
0
10
21.311199882969323
20
-62.198938244587758
30
0
10
22.280354327031546
20
-60.801058242162149
30
0
10
23.393831980080371
20
-59.19501066751485
30
0
10
24.26237913943757
20
-57.675880427908353
30
0
10
25.048876661165043
20
-56.624606163257496
30
0
10
25.649375791152838
20
-55.82194720520404
30
0
10
26.166662236167319
20
-55.317303263549277
30
0
10
26.629188869197129
20
-55.031325281366428
30
0
10
27.06817512142414
20
-54.759902202882216
30
0
10
27.480561249965817
20
-54.616718719568809
30
0
10
28.203987214716975
20
-54.616718719568809
30
0
0
SPLINE
5
279
100
AcDbEntity
8
0
100
AcDbSpline
70
4
71
5
72
12
73
6
74
0
42
0.000000001
43
0.0000000001
44
0.0000000001
40
0.88013030738740416
40
0.88013030738740416
40
0.88013030738740416
40
0.88013030738740416
40
0.88013030738740416
40
0.88013030738740416
40
1
40
1
40
1
40
1
40
1
40
1
41
1
41
1
41
1
41
1
41
1
41
1
10
37.713400197655808
20
-46.981092429839997
30
0
10
37.793029237677963
20
-46.5968137757067
30
0
10
37.853583302328914
20
-46.193790545233462
30
0
10
37.894295296198159
20
-45.771268929925014
30
0
10
37.914656782245089
20
-45.328749299415577
30
0
10
37.914656782245089
20
-44.86622086563515
30
0
0
SPLINE
5
280
100
AcDbEntity
8
0
100
AcDbSpline
70
4
71
5
72
15
73
9
74
0
42
0.000000001
43
0.0000000001
44
0.0000000001
40
0.66999338871811709
40
0.66999338871811709
40
0.66999338871811709
40
0.66999338871811709
40
0.66999338871811709
40
0.66999338871811709
40
0.69999999999999996
40
0.79999999999999993
40
0.89999999999999991
40
1
40
1
40
1
40
1
40
1
40
1
41
1
41
1
41
1
41
1
41
1
41
1
41
1
41
1
41
1
10
10.74306371344257
20
14.69957966125509
30
0
10
10.689778303672174
20
14.655083859840712
30
0
10
10.457164999628327
20
14.472368821301551
30
0
10
10.032181308757382
20
14.224508101576694
30
0
10
9.3888205981566539
20
14.037176391967712
30
0
10
8.7069191931362724
20
14.003404761164051
30
0
10
8.0693541905109214
20
14.004103682702988
30
0
10
7.6388261943741975
20
14.004263301391966
30
0
10
7.4221916005666655
20
14.004263301391966
30
0
0
SPLINE
5
281
100
AcDbEntity
8
0
100
AcDbSpline
70
4
71
5
72
15
73
9
74
0
42
0.000000001
43
0.0000000001
44
0.0000000001
40
-0.58385525240960212
40
-0.58385525240960212
40
-0.58385525240960212
40
-0.58385525240960212
40
-0.58385525240960212
40
-0.58385525240960212
40
-0.5
40
-0.40000000000000002
40
-0.30000000000000004
40
-0.29134070401662415
40
-0.29134070401662415
40
-0.29134070401662415
40
-0.29134070401662415
40
-0.29134070401662415
40
-0.29134070401662415
41
1
41
1
41
1
41
1
41
1
41
1
41
1
41
1
41
1
10
-11.120052811257267
20
17.534287297043058
30
0
10
-11.376367273493216
20
17.84256711969449
30
0
10
-11.91348829454788
20
18.556769429054992
30
0
10
-12.657468681854976
20
19.784381879876513
30
0
10
-13.296184279971451
20
21.218796792951228
30
0
10
-13.872812801135389
20
22.717595917885482
30
0
10
-14.290283828724821
20
23.766292991615749
30
0
10
-14.514876214763843
20
24.299251556419968
30
0
10
-14.53282296502204
20
24.341636819363476
30
0
0
ENDSEC
0
SECTION
2
OBJECTS
0
DICTIONARY
5
C
100
AcDbDictionary
3
ACAD_GROUP
350
D
3
ACAD_MLINESTYLE
350
17
0
DICTIONARY
5
D
100
AcDbDictionary
0
DICTIONARY
5
1A
330
C
100
AcDbDictionary
0
DICTIONARY
5
17
100
AcDbDictionary
0
ENDSEC
0
EOF
